<svg id="Layer_1" data-name="Layer 1" xmlns="http://www.w3.org/2000/svg" viewBox="0 0 1476 1618.97"><title>ProfileAvatar</title><path d="M224,1799.5a165.54,165.54,0,0,1-1.51-22.18c0-46.45,19.47-91.53,57.87-134,37.12-41,90.28-77.89,158-109.55s146.62-56.53,234.46-73.9c91-18,187.57-27.11,287.17-27.11s196.21,9.12,287.17,27.11c87.84,17.37,166.72,42.23,234.46,73.9s120.88,68.52,158,109.55c38.4,42.44,57.87,87.52,57.87,134a165.54,165.54,0,0,1-1.51,22.18Z" transform="translate(-222 -181.03)" style="fill:#ff5333"/><path d="M960,1433.29c99.56,0,196.15,9.12,287.07,27.1,87.8,17.36,166.65,42.21,234.35,73.86s120.76,68.45,157.84,109.44C1677.57,1686,1697,1731,1697,1777.32a164.82,164.82,0,0,1-1.45,21.68H224.45a164.82,164.82,0,0,1-1.45-21.68c0-46.32,19.43-91.28,57.74-133.63,37.08-41,90.18-77.81,157.84-109.44s146.55-56.5,234.35-73.86c90.92-18,187.51-27.1,287.07-27.1m0-1c-407.59,0-738,154.48-738,345a163.38,163.38,0,0,0,1.58,22.68H1696.42a163.38,163.38,0,0,0,1.58-22.68c0-190.55-330.41-345-738-345Z" transform="translate(-222 -181.03)" style="fill:#ff8c00"/><ellipse cx="1188.24" cy="765.09" rx="110.62" ry="138.49" style="fill:#eac086"/><path d="M1410.24,808.13c29.37,0,57,14.32,77.8,40.33s32.33,60.76,32.33,97.65-11.49,71.58-32.33,97.66-48.43,40.33-77.8,40.33-57-14.32-77.79-40.33-32.33-60.76-32.33-97.66,11.48-71.58,32.33-97.65,48.42-40.33,77.79-40.33m0-1c-61.37,0-111.12,62.22-111.12,139s49.75,139,111.12,139,111.13-62.23,111.13-139-49.76-139-111.13-139Z" transform="translate(-222 -181.03)" style="fill:#eac086"/><ellipse cx="297.59" cy="753.7" rx="110.62" ry="138.49" style="fill:#eac086"/><path d="M519.59,796.73c29.37,0,57,14.33,77.79,40.34s32.33,60.75,32.33,97.65-11.48,71.58-32.33,97.66-48.42,40.33-77.79,40.33-57-14.32-77.8-40.33-32.33-60.76-32.33-97.66,11.48-71.58,32.33-97.65,48.43-40.34,77.8-40.34m0-1c-61.37,0-111.13,62.23-111.13,139s49.76,139,111.13,139,111.12-62.23,111.12-139-49.75-139-111.12-139Z" transform="translate(-222 -181.03)" style="fill:#eac086"/><path d="M965.33,1374A457.49,457.49,0,0,1,792,1340.31a445.13,445.13,0,0,1-141.53-91.77,426.44,426.44,0,0,1-95.42-136.12,414.63,414.63,0,0,1,0-333.37,426.44,426.44,0,0,1,95.42-136.12A445.13,445.13,0,0,1,792,551.16a463,463,0,0,1,346.62,0,445.13,445.13,0,0,1,141.53,91.77,426.25,426.25,0,0,1,95.41,136.12,414.52,414.52,0,0,1,0,333.37,426.25,426.25,0,0,1-95.41,136.12,445.13,445.13,0,0,1-141.53,91.77A457.49,457.49,0,0,1,965.33,1374Z" transform="translate(-222 -181.03)" style="fill:#ffdbac"/><path d="M965.33,518a457.2,457.2,0,0,1,173.13,33.62,444.55,444.55,0,0,1,141.36,91.67,426,426,0,0,1,95.31,136,414.09,414.09,0,0,1,0,333,425.77,425.77,0,0,1-95.31,136,444.58,444.58,0,0,1-141.36,91.68,462.59,462.59,0,0,1-346.26,0,444.58,444.58,0,0,1-141.36-91.68,425.61,425.61,0,0,1-95.31-136,414.09,414.09,0,0,1,0-333,425.83,425.83,0,0,1,95.31-136A444.55,444.55,0,0,1,792.2,551.62,457.16,457.16,0,0,1,965.33,518m0-1c-246.18,0-445.74,192-445.74,428.73s199.56,428.74,445.74,428.74,445.74-192,445.74-428.74S1211.51,517,965.33,517Z" transform="translate(-222 -181.03)" style="fill:#ffdbac"/><ellipse cx="570" cy="691.97" rx="46.5" ry="65.5"/><path d="M792,808c25.36,0,46,29.16,46,65s-20.64,65-46,65-46-29.16-46-65,20.64-65,46-65m0-1c-26,0-47,29.55-47,66s21,66,47,66,47-29.55,47-66-21-66-47-66Z" transform="translate(-222 -181.03)"/><circle cx="551.5" cy="676.47" r="15" style="fill:#fff"/><path d="M773.5,843A14.5,14.5,0,1,1,759,857.5,14.51,14.51,0,0,1,773.5,843m0-1A15.5,15.5,0,1,0,789,857.5,15.5,15.5,0,0,0,773.5,842Z" transform="translate(-222 -181.03)"/><ellipse cx="896" cy="691.97" rx="46.5" ry="65.5"/><path d="M1118,808c25.36,0,46,29.16,46,65s-20.64,65-46,65-46-29.16-46-65,20.64-65,46-65m0-1c-26,0-47,29.55-47,66s21,66,47,66,47-29.55,47-66-21-66-47-66Z" transform="translate(-222 -181.03)"/><circle cx="880.5" cy="676.47" r="15" style="fill:#fff"/><path d="M1102.5,843a14.5,14.5,0,1,1-14.5,14.5,14.51,14.51,0,0,1,14.5-14.5m0-1a15.5,15.5,0,1,0,15.5,15.5,15.5,15.5,0,0,0-15.5-15.5Z" transform="translate(-222 -181.03)"/><path d="M965.5,1276.83c-46.71,0-92.33-7.66-128.43-21.55-34.82-13.4-59.39-32-69.41-52.45,49,23.29,121,36.63,197.84,36.63s148.81-13.34,197.84-36.63c-10,20.46-34.59,39.05-69.41,52.45C1057.83,1269.17,1012.21,1276.83,965.5,1276.83Z" transform="translate(-222 -181.03)" style="fill:#d43500"/><path d="M768.76,1203.9C817.82,1226.84,889.29,1240,965.5,1240s147.68-13.12,196.74-36.06c-10.36,19.84-34.53,37.84-68.49,50.91-36,13.88-81.6,21.52-128.25,21.52s-92.2-7.64-128.25-21.52c-34-13.07-58.13-31.07-68.49-50.91m395.63-2.13c-47,22.7-118.65,37.19-198.89,37.19s-151.86-14.49-198.89-37.19c19.8,43.19,101.32,75.56,198.89,75.56s179.09-32.37,198.89-75.56Z" transform="translate(-222 -181.03)" style="fill:#d43500"/><path d="M1117.33,1487.06V1347.89a464.31,464.31,0,0,1-306.83-1v140.17a81.8,81.8,0,0,0,.56,9.44h-.49a19.3,19.3,0,0,0,1.34,5.6A81.51,81.51,0,0,0,892,1568.56h143.83a81.53,81.53,0,0,0,79.88-65.26,20,20,0,0,0,1.86-6.8h-.8A81.8,81.8,0,0,0,1117.33,1487.06Z" transform="translate(-222 -181.03)" style="fill:#f1c27d;stroke:#f1c27d;stroke-miterlimit:10"/><path d="M770.58,1517.6a24.74,24.74,0,0,0,1.66,7c8.72,47.45,49.71,83.38,99,83.38H1049c48.75,0,89.41-35.16,98.72-81.87a25.42,25.42,0,0,0,2.29-8.53h-1a105.33,105.33,0,0,0,.69-11.85V1444q-16.45-3-33.38-5.46v45.51a81.8,81.8,0,0,1-.56,9.44h.8a20,20,0,0,1-1.86,6.8,81.53,81.53,0,0,1-79.88,65.26H891a81.51,81.51,0,0,1-80.09-66.46,19.3,19.3,0,0,1-1.34-5.6h.49a81.8,81.8,0,0,1-.56-9.44V1437.3q-19.8,2.71-39,6.13v62.32a105.33,105.33,0,0,0,.69,11.85Z" transform="translate(-222 -181.03)" style="fill:#c94400;stroke:#c94400;stroke-miterlimit:10"/><path d="M353.5,481.5c-32.78,36.08-38.81,63.43-38,82,.73,16.72,7.11,29,3,53-1.57,9.18-4.59,19.6-3,35,.69,6.65,1.73,9.33,5,22,3.17,12.28,8,30.88,10,45,3,20.78-1,25.07,0,43,2.4,44.17,29.77,78.44,43,95,7.05,8.83,14.7,16.55,30,32,13.54,13.68,17.67,16.87,40,38,42.34,40.07,47.07,47.13,50,57,6.25,21.06-2.61,31.24,5,38,13.66,12.13,57.65-12.35,85-35,23.94-19.83,38.53-41.09,57-68,7.7-11.22,17.66-25.86,28-47a338.51,338.51,0,0,0,22-58c4.06-14.67,2-11.06,10-45,5.64-23.84,7.81-30.45,10-45,2.79-18.57,4.19-27.85,3-37-4.75-36.54-42.92-59.06-53-65-33-19.46-74.46-24.83-77-18-3.86,10.37,75.44,66.67,170,80,46,6.48,50.6-3.52,142,3,56.41,4,57.67,8,105,10,49.56,2,88.22,3.63,138-5,41.76-7.24,62.69-16.71,105-15,6.45.26,20.59,1.07,40.72.6,52.65-1.24,64.29-9.33,69.28-13.6,14.4-12.31,21.28-33.7,17-37-8-6.17-75.46,38.3-80,95-1.88,23.5,10.41,47.33,35,95,4.48,8.68,14.65,26.45,35,62,25.47,44.49,25.86,44.22,28,50,18.87,50.93-5.49,87.91,7,95,19.35,11,86.61-72.84,110-102,30.78-38.37,41.82-58.9,45-65,12.79-24.58,19.13-44.48,33-98,21.4-82.59,32.1-123.88,32-147-.24-55.94-17.75-98-25-115-43.49-101.73-132.6-152.07-180-178-16.83-9.21-98.12-33.6-260-82-56-16.75-86.91-25.83-132-35-75.5-15.36-118.68-24.14-175-18-39,4.26-79.37,19.5-160,50-54.78,20.72-82.17,31.08-113,50-40.15,24.64-38.86,32.59-105,78a370,370,0,0,0-50,40c-9.86,9.44-21.6,18.92-32,35a139.71,139.71,0,0,0-12,23" transform="translate(-222 -181.03)" style="stroke:#000;stroke-miterlimit:10"/></svg>