<svg id="Layer_1" data-name="Layer 1" xmlns="http://www.w3.org/2000/svg" viewBox="0 0 1367 1367"><title>Gatsby-Profile-Icon</title><rect x="0.5" y="0.5" width="1366" height="1366" style="fill:#fff;stroke:#000;stroke-miterlimit:10"/><path d="M8.15,1080.5a87.8,87.8,0,0,1-.65-10.6c0-92.82,147.59-168.34,329-168.34s329,75.52,329,168.34a87.8,87.8,0,0,1-.65,10.6Z" style="fill:#ff5333"/><path d="M336.5,902.06a605.79,605.79,0,0,1,128,13.25c39.16,8.48,74.31,20.63,104.5,36.09s53.79,33.42,70.3,53.42c17,20.63,25.66,42.53,25.66,65.08a87.84,87.84,0,0,1-.59,10.1H8.59A87.84,87.84,0,0,1,8,1069.9c0-22.55,8.63-44.45,25.66-65.08,16.51-20,40.17-38,70.3-53.42s65.34-27.61,104.5-36.09a605.79,605.79,0,0,1,128-13.25m0-1C154.52,901.06,7,976.65,7,1069.9a89.17,89.17,0,0,0,.7,11.1H665.3a89.17,89.17,0,0,0,.7-11.1c0-93.25-147.52-168.84-329.5-168.84Z" style="fill:#ff8c00"/><ellipse cx="537.52" cy="663.15" rx="49.11" ry="67.51" style="fill:#eac086"/><path d="M537.52,596.14c26.81,0,48.62,30.06,48.62,67s-21.81,67-48.62,67-48.61-30.06-48.61-67,21.81-67,48.61-67m0-1c-27.4,0-49.61,30.45-49.61,68s22.21,68,49.61,68,49.62-30.45,49.62-68-22.22-68-49.62-68Z" style="fill:#eac086"/><ellipse cx="139.87" cy="657.58" rx="49.11" ry="67.51" style="fill:#eac086"/><path d="M139.87,590.56c26.8,0,48.61,30.06,48.61,67s-21.81,67-48.61,67-48.62-30.06-48.62-67,21.81-67,48.62-67m0-1c-27.41,0-49.62,30.45-49.62,68s22.21,68,49.62,68,49.61-30.45,49.61-68-22.21-68-49.61-68Z" style="fill:#eac086"/><ellipse cx="338.88" cy="662.97" rx="198.51" ry="209.3" style="fill:#ffdbac"/><path d="M338.88,454.16a188.11,188.11,0,0,1,77.06,16.4,197.29,197.29,0,0,1,62.94,44.74,209.25,209.25,0,0,1,42.45,66.37,220.15,220.15,0,0,1,0,162.59,209.25,209.25,0,0,1-42.45,66.37,197.29,197.29,0,0,1-62.94,44.74,189.24,189.24,0,0,1-154.12,0,197.29,197.29,0,0,1-62.94-44.74,209.25,209.25,0,0,1-42.45-66.37,220.15,220.15,0,0,1,0-162.59,209.25,209.25,0,0,1,42.45-66.37,197.29,197.29,0,0,1,62.94-44.74,188.08,188.08,0,0,1,77.06-16.4m0-1c-109.91,0-199,93.94-199,209.81s89.1,209.8,199,209.8,199-93.93,199-209.8-89.1-209.81-199-209.81Z" style="fill:#ffdbac"/><path d="M261.49,659.17c-11.29,0-20.48-14.26-20.48-31.8s9.19-31.79,20.48-31.79S282,609.84,282,627.37,272.79,659.17,261.49,659.17Z"/><path d="M261.49,596.08c11,0,20,14,20,31.29s-9,31.3-20,31.3-20-14-20-31.3,9-31.29,20-31.29m0-1c-11.59,0-21,14.46-21,32.29s9.39,32.3,21,32.3,21-14.46,21-32.3-9.4-32.29-21-32.29Z"/><ellipse cx="253.23" cy="619.79" rx="6.42" ry="7.08" style="fill:#fff"/><path d="M253.23,613.2c3.27,0,5.92,3,5.92,6.59s-2.65,6.58-5.92,6.58-5.92-3-5.92-6.58,2.66-6.59,5.92-6.59m0-1c-3.82,0-6.92,3.4-6.92,7.59s3.1,7.58,6.92,7.58,6.92-3.39,6.92-7.58-3.1-7.59-6.92-7.59Z"/><path d="M407,659.17c-11.29,0-20.48-14.26-20.48-31.8s9.19-31.79,20.48-31.79,20.49,14.26,20.49,31.79S418.34,659.17,407,659.17Z"/><path d="M407,596.08c11,0,20,14,20,31.29s-9,31.3-20,31.3-20-14-20-31.3,9-31.29,20-31.29m0-1c-11.59,0-21,14.46-21,32.29s9.39,32.3,21,32.3,21-14.46,21-32.3-9.4-32.29-21-32.29Z"/><ellipse cx="400.12" cy="619.79" rx="6.42" ry="7.08" style="fill:#fff"/><path d="M400.12,613.2c3.27,0,5.92,3,5.92,6.59s-2.65,6.58-5.92,6.58-5.92-3-5.92-6.58,2.66-6.59,5.92-6.59m0-1c-3.82,0-6.92,3.4-6.92,7.59s3.1,7.58,6.92,7.58S407,624,407,619.79s-3.09-7.59-6.92-7.59Z"/><path d="M339,824.73c-41.44,0-77.93-14.8-87.76-35.37C273.11,800.56,305,807,339,807s65.84-6.4,87.75-17.6C416.88,809.93,380.39,824.73,339,824.73Z" style="fill:#d43500"/><path d="M425.58,790.49C414.91,810.2,379.3,824.23,339,824.23s-76-14-86.63-33.74c21.93,10.81,53.27,17,86.63,17s64.69-6.16,86.62-17m2.18-2.23c-21,11.1-53,18.2-88.8,18.2s-67.81-7.1-88.81-18.2c8.85,21.13,45.24,37,88.81,37s80-15.84,88.8-37Z" style="fill:#d43500"/><path d="M406.75,927.86v-68.1a190.19,190.19,0,0,1-137-.49v68.59a43.8,43.8,0,0,0,.25,4.62h-.22a10.12,10.12,0,0,0,.6,2.74c3.15,18.51,18,32.52,35.76,32.52h64.22c17.61,0,32.3-13.71,35.66-31.93a10.72,10.72,0,0,0,.83-3.33h-.36A43.78,43.78,0,0,0,406.75,927.86Z" style="fill:#f1c27d;stroke:#f1c27d;stroke-miterlimit:10"/><path d="M251.93,942.81a12.92,12.92,0,0,0,.74,3.43c3.89,23.22,22.19,40.8,44.19,40.8h79.37c21.77,0,39.92-17.2,44.08-40.06a13.2,13.2,0,0,0,1-4.17h-.44a55.6,55.6,0,0,0,.31-5.8V906.8q-7.35-1.47-14.9-2.67v22.26a43.8,43.8,0,0,1-.25,4.62h.35a10.13,10.13,0,0,1-.83,3.33c-3.36,18.22-18.05,31.94-35.66,31.94H305.69c-17.8,0-32.61-14-35.76-32.53a10.51,10.51,0,0,1-.6-2.74h.22a43.8,43.8,0,0,1-.25-4.62V903.51q-8.83,1.34-17.41,3V937a55.6,55.6,0,0,0,.31,5.8Z" style="fill:#c94400;stroke:#c94400;stroke-miterlimit:10"/><path d="M65.71,435.79c-14.64,17.66-17.33,31-17,40.13.32,8.18,3.17,14.18,1.34,25.93-.71,4.5-2.06,9.59-1.34,17.13.3,3.26.77,4.56,2.23,10.77,1.41,6,3.55,15.11,4.46,22,1.34,10.17-.43,12.26,0,21,1.08,21.62,13.29,38.38,19.2,46.49,3.15,4.32,6.56,8.1,13.4,15.66,6,6.69,7.89,8.25,17.85,18.59,18.91,19.61,21,23.06,22.33,27.9,2.79,10.3-1.17,15.29,2.23,18.59,6.1,5.94,25.74-6,38-17.13,10.69-9.7,17.2-20.1,25.45-33.27a173.56,173.56,0,0,0,12.5-23,174.82,174.82,0,0,0,9.82-28.38c1.82-7.18.88-5.41,4.47-22,2.52-11.67,3.49-14.9,4.46-22,1.25-9.08,1.87-13.62,1.34-18.1-2.12-17.88-19.16-28.9-23.66-31.81-14.73-9.52-33.24-12.15-34.38-8.81-1.72,5.08,33.68,32.63,75.9,39.15,20.52,3.17,22.59-1.72,63.4,1.47,25.19,2,25.75,3.94,46.88,4.89,22.13,1,39.39,1.78,61.62-2.44,18.64-3.55,28-8.18,46.88-7.34,2.87.12,9.19.52,18.18.29,23.5-.61,28.7-4.57,30.93-6.66,6.43-6,9.5-16.49,7.59-18.1-3.57-3-33.69,18.74-35.72,46.49-.84,11.49,4.65,23.16,15.63,46.48,2,4.25,6.54,12.95,15.62,30.34,11.38,21.78,11.55,21.64,12.51,24.47,8.42,24.92-2.45,43,3.12,46.49,8.64,5.38,38.67-35.65,49.11-49.91,13.75-18.78,18.68-28.82,20.09-31.81,5.72-12,8.55-21.77,14.74-48,9.55-40.41,14.33-60.62,14.29-71.93A154.11,154.11,0,0,0,618,443.13c-19.41-49.78-59.2-74.41-80.36-87.1-7.52-4.51-43.81-16.44-116.09-40.13-25-8.19-38.8-12.64-58.93-17.13-33.71-7.51-53-11.81-78.13-8.8-17.44,2.08-35.44,9.54-71.44,24.46-24.46,10.14-36.69,15.21-50.45,24.47-17.93,12.06-17.35,16-46.88,38.17a169,169,0,0,0-22.33,19.57c-4.4,4.62-9.64,9.26-14.28,17.13A71,71,0,0,0,73.75,425" style="stroke:#000;stroke-miterlimit:10"/><rect x="693.5" y="631.5" width="602" height="143" rx="30.25" style="fill:#b3b3b3"/><path d="M1265.25,632A29.79,29.79,0,0,1,1295,661.75v82.5A29.79,29.79,0,0,1,1265.25,774H723.75A29.79,29.79,0,0,1,694,744.25v-82.5A29.79,29.79,0,0,1,723.75,632h541.5m0-1H723.75A30.75,30.75,0,0,0,693,661.75v82.5A30.75,30.75,0,0,0,723.75,775h541.5A30.75,30.75,0,0,0,1296,744.25v-82.5A30.75,30.75,0,0,0,1265.25,631Z"/><rect x="693.5" y="856.5" width="602" height="143" rx="30.25" style="fill:#b3b3b3"/><path d="M1265.25,857A29.79,29.79,0,0,1,1295,886.75v82.5A29.79,29.79,0,0,1,1265.25,999H723.75A29.79,29.79,0,0,1,694,969.25v-82.5A29.79,29.79,0,0,1,723.75,857h541.5m0-1H723.75A30.75,30.75,0,0,0,693,886.75v82.5A30.75,30.75,0,0,0,723.75,1000h541.5A30.75,30.75,0,0,0,1296,969.25v-82.5A30.75,30.75,0,0,0,1265.25,856Z"/><rect x="693.5" y="415.5" width="602" height="143" rx="30.25" style="fill:#b3b3b3"/><path d="M1265.25,416A29.79,29.79,0,0,1,1295,445.75v82.5A29.79,29.79,0,0,1,1265.25,558H723.75A29.79,29.79,0,0,1,694,528.25v-82.5A29.79,29.79,0,0,1,723.75,416h541.5m0-1H723.75A30.75,30.75,0,0,0,693,445.75v82.5A30.75,30.75,0,0,0,723.75,559h541.5A30.75,30.75,0,0,0,1296,528.25v-82.5A30.75,30.75,0,0,0,1265.25,415Z"/></svg>