<svg id="Layer_1" data-name="Layer 1" xmlns="http://www.w3.org/2000/svg" viewBox="0 0 949.54 981.71"><title>CresentMoon</title><path d="M492,981.21A491.51,491.51,0,0,1,442.59.68c-108.42,79-173.09,206-173.09,340,0,231.87,188.64,420.5,420.5,420.5,94.66,0,184-30.67,258.39-88.73A491.66,491.66,0,0,1,492,981.21Z" style="fill:#efc31e"/><path d="M440.81,1.36C333.15,80.56,269,207.13,269,340.71c0,232.14,188.86,421,421,421,94.16,0,183-30.31,257.23-87.7A491.06,491.06,0,1,1,440.81,1.36M444.37,0C195,24,0,234.06,0,489.71c0,271.73,220.28,492,492,492,207.72,0,385.38-128.73,457.54-310.77A418.17,418.17,0,0,1,690,760.71c-232,0-420-188-420-420C270,200.47,338.74,76.28,444.37,0Z" style="fill:#efc31e"/></svg>