<svg id="Layer_1" data-name="Layer 1" xmlns="http://www.w3.org/2000/svg" viewBox="0 0 1598.21 1598.21"><title>Sun</title><path d="M799.61,1336.61a537.85,537.85,0,1,1,210-42.4A536.14,536.14,0,0,1,799.61,1336.61Z" style="fill:#f04923"/><path d="M799.61,258.11A536.29,536.29,0,0,1,1101,350.16,540.7,540.7,0,0,1,1296.25,587.3a538.22,538.22,0,0,1-49.7,511.16,540.7,540.7,0,0,1-237.14,195.29,538.22,538.22,0,0,1-511.16-49.7A540.7,540.7,0,0,1,303,1006.91a538.22,538.22,0,0,1,49.7-511.16A540.7,540.7,0,0,1,589.8,300.46a535.74,535.74,0,0,1,209.81-42.35m0-1c-298.24,0-540,241.76-540,540s241.76,540,540,540,540-241.77,540-540-241.77-540-540-540Z" style="fill:#f04923"/><polygon points="1198.66 107.06 1198.66 402.56 942.75 254.81 1198.66 107.06" style="fill:#f68c21"/><polygon points="1491.15 399.55 1343.4 655.46 1195.65 399.55 1491.15 399.55" style="fill:#f68c21"/><polygon points="1598.21 799.11 1342.3 946.85 1342.3 651.36 1598.21 799.11" style="fill:#f68c21"/><polygon points="1491.15 1198.66 1195.65 1198.66 1343.4 942.75 1491.15 1198.66" style="fill:#f68c21"/><polygon points="1198.66 1491.15 942.75 1343.4 1198.66 1195.65 1198.66 1491.15" style="fill:#f68c21"/><polygon points="799.11 1598.21 651.36 1342.3 946.85 1342.3 799.11 1598.21" style="fill:#f68c21"/><polygon points="399.55 1491.15 399.55 1195.65 655.46 1343.4 399.55 1491.15" style="fill:#f68c21"/><polygon points="107.06 1198.66 254.81 942.75 402.56 1198.66 107.06 1198.66" style="fill:#f68c21"/><polygon points="0 799.11 255.91 651.36 255.91 946.85 0 799.11" style="fill:#f68c21"/><polygon points="107.06 399.55 402.56 399.55 254.81 655.46 107.06 399.55" style="fill:#f68c21"/><polygon points="399.55 107.06 655.46 254.81 399.55 402.56 399.55 107.06" style="fill:#f68c21"/><polygon points="799.11 0 946.85 255.91 651.36 255.91 799.11 0" style="fill:#f68c21"/></svg>